<svg width="100" height="104" viewBox="0 0 100 104" fill="none" xmlns="http://www.w3.org/2000/svg">
    <path
        d="M85 94H15V99C15 100.326 14.4732 101.598 13.5355 102.536C12.5979 103.473 11.3261 104 10 104H5C3.67392 104 2.40215 103.473 1.46447 102.536C0.526784 101.598 0 100.326 0 99V54L12.085 33.855C12.9735 32.3742 14.2303 31.1488 15.733 30.298C17.2357 29.4472 18.9331 29 20.66 29H79.34C81.0669 29 82.7643 29.4472 84.267 30.298C85.7697 31.1488 87.0265 32.3742 87.915 33.855L100 54V99C100 100.326 99.4732 101.598 98.5355 102.536C97.5979 103.473 96.3261 104 95 104H90C88.6739 104 87.4021 103.473 86.4645 102.536C85.5268 101.598 85 100.326 85 99V94ZM11.66 54H88.34L79.34 39H20.66L11.66 54ZM22.5 79C24.4891 79 26.3968 78.2098 27.8033 76.8033C29.2098 75.3968 30 73.4891 30 71.5C30 69.5109 29.2098 67.6032 27.8033 66.1967C26.3968 64.7902 24.4891 64 22.5 64C20.5109 64 18.6032 64.7902 17.1967 66.1967C15.7902 67.6032 15 69.5109 15 71.5C15 73.4891 15.7902 75.3968 17.1967 76.8033C18.6032 78.2098 20.5109 79 22.5 79ZM77.5 79C79.4891 79 81.3968 78.2098 82.8033 76.8033C84.2098 75.3968 85 73.4891 85 71.5C85 69.5109 84.2098 67.6032 82.8033 66.1967C81.3968 64.7902 79.4891 64 77.5 64C75.5109 64 73.6032 64.7902 72.1967 66.1967C70.7902 67.6032 70 69.5109 70 71.5C70 73.4891 70.7902 75.3968 72.1967 76.8033C73.6032 78.2098 75.5109 79 77.5 79ZM17.2 6.20001L22.5 0.890015L27.8 6.19001C28.8491 7.23882 29.5637 8.57519 29.8532 10.0301C30.1428 11.485 29.9944 12.9931 29.4268 14.3637C28.8592 15.7343 27.8979 16.9058 26.6645 17.73C25.4311 18.5542 23.981 18.9941 22.4975 18.9941C21.014 18.9941 19.5639 18.5542 18.3305 17.73C17.0971 16.9058 16.1358 15.7343 15.5682 14.3637C15.0006 12.9931 14.8522 11.485 15.1418 10.0301C15.4313 8.57519 16.1459 7.23882 17.195 6.19001L17.2 6.20001ZM44.7 6.20001L50 0.890015L55.3 6.19001C56.3491 7.23882 57.0637 8.57519 57.3532 10.0301C57.6428 11.485 57.4944 12.9931 56.9268 14.3637C56.3592 15.7343 55.3979 16.9058 54.1645 17.73C52.9311 18.5542 51.481 18.9941 49.9975 18.9941C48.514 18.9941 47.0639 18.5542 45.8305 17.73C44.5971 16.9058 43.6358 15.7343 43.0682 14.3637C42.5006 12.9931 42.3522 11.485 42.6418 10.0301C42.9314 8.57519 43.6459 7.23882 44.695 6.19001L44.7 6.20001ZM72.2 6.20001L77.5 0.895014L82.8 6.19501C83.8491 7.24382 84.5636 8.58019 84.8532 10.0351C85.1428 11.49 84.9944 12.9981 84.4268 14.3687C83.8592 15.7393 82.8979 16.9108 81.6645 17.735C80.4311 18.5592 78.981 18.9991 77.4975 18.9991C76.014 18.9991 74.5639 18.5592 73.3305 17.735C72.0971 16.9108 71.1358 15.7393 70.5682 14.3687C70.0006 12.9981 69.8522 11.49 70.1418 10.0351C70.4313 8.58019 71.1459 7.24382 72.195 6.19501L72.2 6.20001Z"
        fill="black" />
</svg>